# xmcd
#
# Track frame offsets: 
#        150
#        16814
#        30752
#        54143
#        68960
#        89620
#        104491
#        132274
#        156142
#        173250
#        196208
#        217142
#
# Disc length: 3389 seconds
#
# Revision: 0
# Processed by: cddbd v1.5.2PL0 Copyright (c) Steve Scherf et al.
# Submitted via: ExactAudioCopy v0.99pb4
#
DISCID=940d3b0c
DTITLE=Sadistik - The Balancing Act
DYEAR=2008
DGENRE=Rap
TTITLE0=Dawn of the Dead
TTITLE1=Playing God
TTITLE2=Ashes to Ashley (feat Mac Lethal)
TTITLE3=Searching for Some Beautiful
TTITLE4=Memento Mori
TTITLE5=Clockwork Grey (Interlude)
TTITLE6=Absolution
TTITLE7=Murder of Crows
TTITLE8=Writes of Passage (feat Vast Aire)
TTITLE9=Angel Eyes
TTITLE10=November
TTITLE11=The Exception to Everything
EXTD=
EXTT0=
EXTT1=
EXTT2=
EXTT3=
EXTT4=
EXTT5=
EXTT6=
EXTT7=
EXTT8=
EXTT9=
EXTT10=
EXTT11=
PLAYORDER=
